<svg height="602" width="602" xmlns="http://www.w3.org/2000/svg" xmlns:xlink="http://www.w3.org/1999/xlink"><linearGradient id="a" gradientUnits="userSpaceOnUse" x1="599.41882" x2="2.179957" y1="92.09774" y2="509.6261"><stop offset="0" stop-color="#ff964f"/><stop offset="1" stop-color="#fe6773"/></linearGradient><path d="m0 0h128.027 345.965 128.008v127.918 346.37 127.712h-126.777-348.668-126.555v-127.982-345.767-127.376635zm473.992 0c.094.0287711.187.059123.28.0863134 3.199.9271366 6.834.9385166 10.132 1.4203866q8.561 1.31554 16.905 3.63721 1.633.45994 3.254.95982 1.622.49988 3.23 1.0394 1.608.53952 3.203 1.11836 1.595.57883 3.175 1.19663 1.58.61778 3.145 1.27418 1.564.6564 3.112 1.351 1.548.6946 3.078 1.4269 1.53.7324 3.042 1.5021 1.512.7697 3.005 1.5763 1.493.8066 2.965 1.6495 1.472.843 2.923 1.7218 1.452.8789 2.881 1.7931 1.429.9142 2.835 1.8632 1.407.949 2.789 1.9322 1.383.9832 2.741 2.0001 1.358 1.0168 2.691 2.0667 1.332 1.0499 2.639 2.1322 1.306 1.0822 2.586 2.1963 1.28 1.114 2.531 2.259 1.252 1.1451 2.476 2.3206 1.223 1.1754 2.417 2.3806 1.194 1.2051 2.359 2.4392 1.164 1.234 2.297 2.4963 1.134 1.2623 2.236 2.552 1.102 1.2897 2.173 2.6061 1.07 1.3164 2.108 2.6586 1.037 1.3423 2.042 2.7096 1.004 1.3673 1.975 2.7588.97 1.3916 1.906 2.8065.936 1.415 1.837 2.8525.901 1.4375 1.767 2.8966.866 1.4592 1.695 2.9392 2.757 4.9133 5.103 10.0357 2.345 5.1223 4.264 10.4194 1.919 5.297 3.398 10.7336 1.479 5.436 2.509 10.975c.893 4.604.966 11.046 2.304 15.135v-127.918zm1.231 602h126.777v-127.712c-.029.086-.059.172-.086.259-1.004 3.243-.9 7.067-1.441 10.439q-1.499 9.015-4.015 17.801-.483 1.644-1.006 3.275-.524 1.631-1.088 3.248-.563 1.618-1.167 3.221-.603 1.603-1.246 3.191-.644 1.588-1.326 3.159-.682 1.572-1.403 3.126-.721 1.554-1.48 3.089-.759 1.536-1.556 3.052-.797 1.517-1.632 3.013-.834 1.496-1.705 2.971-.871 1.475-1.779 2.928-.907 1.453-1.85 2.883-.943 1.43-1.921 2.836-.979 1.407-1.991 2.788-1.013 1.382-2.06 2.738-1.046 1.356-2.126 2.686-1.08 1.33-2.193 2.632-1.112 1.303-2.257 2.578-1.144 1.274-2.32 2.52-1.175 1.246-2.382 2.463-1.206 1.216-2.442 2.402-1.236 1.187-2.5 2.342-1.265 1.155-2.559 2.279-1.293 1.123-2.613 2.214-1.321 1.092-2.668 2.15-1.347 1.058-2.72 2.082-1.373 1.025-2.771 2.015-1.398.99-2.82 1.945-1.422.955-2.867 1.875-1.445.92-2.913 1.804-1.467.883-2.956 1.73-1.489.847-2.999 1.657-4.499 2.419-9.165 4.494-4.667 2.076-9.476 3.797-4.808 1.721-9.732 3.078-4.924 1.357-9.936 2.342c-5.094.99-10.647 1.189-15.61 2.61zm-475.223-602v.874365 127.376635c.748018-2.576.805788-5.514 1.11437-8.181q.52855-4.388 1.41595-8.718.65465-3.33 1.47323-6.623.81859-3.294 1.7991-6.5424.98052-3.2489 2.12057-6.4452 1.14004-3.1964 2.43678-6.3324 1.2968-3.1361 2.7472-6.2041 1.4503-3.068 3.0507-6.0606 1.6003-2.9925 3.3468-5.9022 1.7464-2.9097 3.6347-5.7294 1.5439-2.3201 3.1803-4.5758 1.6364-2.2558 3.3627-4.4436 1.7262-2.1878 3.5395-4.304 1.8133-2.1162 3.7106-4.1573 1.8974-2.0412 3.8757-4.0041 1.9783-1.9628 4.0343-3.844 2.056-1.8813 4.1864-3.6779 2.1304-1.7966 4.3317-3.5056 2.2012-1.709 4.4698-3.3277 2.2685-1.6186 4.6006-3.1442 2.3321-1.5257 4.724-2.9558 2.3919-1.4301 4.8397-2.7624 2.4477-1.3322 4.9473-2.5644 2.4996-1.2323 5.0469-2.3625 2.5474-1.1301 5.1383-2.15643 2.591-1.0263 5.2213-1.94702c8.1955-2.85511 16.5005-4.75019 25.0025-6.44362 3.418-.26423 7.433-.27929 10.676-1.33633zm0 474.018v127.982h126.555c-5.12-1.599-11.299-1.728-16.666-2.837q-5.729-1.185-11.3361-2.855-5.6071-1.669-11.0514-3.811-5.4442-2.141-10.6861-4.739-5.2418-2.598-10.243-5.634-1.3963-.844-2.7724-1.722-1.376-.877-2.7309-1.787-1.3549-.909-2.688-1.85-1.3331-.942-2.6435-1.914-1.3105-.972-2.5977-1.976-1.2871-1.003-2.5502-2.036-1.2631-1.033-2.5014-2.096-1.2384-1.063-2.4513-2.155-1.2129-1.091-2.3997-2.211-1.1868-1.12-2.3468-2.268-1.16-1.148-2.2926-2.323-1.1326-1.175-2.2372-2.376-1.1045-1.201-2.1803-2.428-1.0759-1.227-2.1225-2.479-1.0466-1.252-2.0633-2.529-1.0168-1.276-2.0031-2.576-.9863-1.3-1.9416-2.623-.9554-1.323-1.8792-2.669-.9238-1.345-1.8157-2.711-.8918-1.367-1.7511-2.754-.8593-1.388-1.6856-2.795-.8263-1.407-1.6191-2.833-.7928-1.427-1.5518-2.871-.7589-1.445-1.4835-2.907-.7247-1.462-1.4146-2.941-.6898-1.479-1.3446-2.974-.6548-1.495-1.2741-3.005-.61931-1.509-1.20279-3.033-.58348-1.524-1.13082-3.062-.54733-1.537-1.05821-3.087-.51088-1.55-.98502-3.111-.47415-1.562-.91129-3.134-2.4206-8.845-3.77966-17.913c-.413952-2.856-.358564-5.863-1.0798009-8.656-.0260699-.101-.0553394-.201-.0830091-.301z" fill="url(#a)"/><path d="m0 0h128.027c-3.243 1.05704-7.258 1.0721-10.676 1.33633l-.363-.519827c-1.921-.633797-7.246-.520485-9.509-.548168-24.8125-.3035826-49.6803.021713-74.4984.023621l-20.4484.00478c-3.63471.001876-8.03051-.418938-11.577092.332296-.318576.247434-.56188.201592-.955108.245333z"/><path d="m19.4296 241.758c4.1194 1.397 8.1992 3.182 12.2548 4.763l24.0416 9.375 73.9 28.819 219.166 85.477q-.066 14.172.024 28.343c17.579-.455 35.225.107 52.815-.059 4.867-.045 12.596-1.488 16.832-.783 3.963.66 8.154 2.785 11.893 4.261l18.902 7.408 79.295 30.911c-7.408 6.821-15.266 13.342-24.578 17.418-12.894 5.644-27.17 7.59-41.019 9.325-11.063 1.386-22.248 2.866-33.383 3.47-10.46.568-21.011.276-31.488.277l-51.914-.013c-21.048.575-42.158.224-63.217.229l-24.87.003c-5.092.001-10.249.169-15.329-.177-11.362-15.959-22.156-32.396-33.196-48.585l-63.186-92.641c-9.714-14.243-19.189-28.731-29.237-42.734.391 7.681.15 15.471.148 23.165l-.002 39.894-.026 120.883c-11.319-.379-22.781-.035-34.1164-.036l-63.638.05c-.386-24.925-.0446-49.909-.0444-74.84z" fill="#fefefe"/><path d="m55.0196 130.953c30.1937.022 60.4214-.328 90.6104.052 4.388 7.185 9.525 14.108 14.269 21.079l28.046 41.214 83.941 123.316c-.603-7.023-.196-14.376-.194-21.437l.003-39.336-.01-124.801c14.821-.341 29.702-.074 44.528-.074l82.864.007 49.169-.007c11.73.003 23.631-.311 35.314.84 12.054 1.187 23.912 3.669 35.083 8.44 19.405 8.288 35.732 24.343 43.541 44.049 7.724 19.49 7.565 43.269-.826 62.518-9.742 22.351-25.937 32.769-47.654 41.372 13.21 2.628 26.938 8.609 38.013 16.207q5.196 3.633 9.685 8.111c15.56 15.544 21.877 36.911 21.886 58.476.01 24.353-8.464 47.868-25.874 65.264-25.207-9.502-50.239-19.564-75.336-29.36l-21.087-8.236c-4.647-1.814-9.297-3.791-14.081-5.215 8.274-1.82 16.283-3.764 22.611-9.788 6.564-6.251 9.533-14.751 9.639-23.708.097-8.2-2.603-16.087-8.415-21.968-4.726-4.783-10.816-7.414-17.276-8.958-12.448-2.976-25.514-2.24-38.214-2.242l-37.503-.003.017 39.431-224.982-87.72-67.9605-26.491c-12.0718-4.717-24.1208-9.833-36.3381-14.127l-.0151-106.83z" fill="#fefefe"/><path d="m377.75 199.275c11.605.168 23.235.006 34.842.008 9.726.003 19.622-.373 29.182 1.719 5.823 1.274 11.32 3.382 15.698 7.546 5.935 5.643 8.197 13.078 8.345 21.099.174 9.406-2.227 17.297-8.82 24.1-4.01 3.578-9.081 5.664-14.26 6.884-10.829 2.549-22.508 2.118-33.581 2.121l-31.377.019z" fill="#fe825d"/></svg>
